# xmcd
#
# Track frame offsets:
#	150
#	16182
#	39812
#	60689
#	79922
#	98774
#	116830
#	132426
#	151402
#	164183
#	179058
#	194496
#
# Disc length: 2862 seconds
#
# Revision: 1
# Processed by: cddbd v1.5.2PL0 Copyright (c) Steve Scherf et al.
# Submitted via: audiograbber 1.83.01
#
DISCID=a50b2c0c
DTITLE=Hank Ray - Countrycide 1990-1996 
DYEAR=2000
DGENRE=Death Country
TTITLE0=Ghost of Your Love [Demo Version]
TTITLE1=Hous I Live In [Demo Version]
TTITLE2=Helldorado [Demo Version]
TTITLE3=Lover's Lament [Demo Version]
TTITLE4=Ground Is Cold as Clay [Demo Version]
TTITLE5=Sleep, Haunted Heart [Demo Version]
TTITLE6=Overshadowed [Alternate Take]
TTITLE7=Rubber Room [Unreleased Version]
TTITLE8=Behind Brown Eyes [Demo Version]
TTITLE9=Day Sweet Valerie Turned Evil [Alternate Take]
TTITLE10=Death Letter
TTITLE11=Heaven Sent or Born in Hell
EXTD=
EXTT0=
EXTT1=
EXTT2=
EXTT3=
EXTT4=
EXTT5=
EXTT6=
EXTT7=
EXTT8=
EXTT9=
EXTT10=
EXTT11=
PLAYORDER=
